<?xml version="1.0" encoding="UTF-8"?>
<svg version="1.1" xmlns="http://www.w3.org/2000/svg" width="512" height="512">
<path d="M0 0 C0.75044083 -0.00145523 1.50088165 -0.00291046 2.27406311 -0.00440979 C4.8181726 -0.00669675 7.36215303 -0.00022558 9.90625 0.0078125 C10.80640839 0.00969574 11.70656677 0.01157898 12.63400269 0.01351929 C20.22491267 0.03158101 27.81551288 0.08004842 35.40625 0.1328125 C36.75628631 0.14154761 38.10632294 0.1502335 39.45635986 0.15887451 C104.29277269 0.58220339 104.29277269 0.58220339 130.78125 2.5078125 C131.59127472 2.56498444 132.40129944 2.62215637 133.23587036 2.68106079 C165.14803042 5.01074494 189.42780403 15.46564315 216.40625 32.1328125 C217.15535645 32.5954248 217.90446289 33.05803711 218.67626953 33.53466797 C223.26787844 36.37719086 227.84125291 39.24779497 232.40625 42.1328125 C232.97827148 42.49310547 233.55029297 42.85339844 234.13964844 43.22460938 C243.21424326 48.94080576 243.21424326 48.94080576 244.40625 50.1328125 C246.61402204 50.21271846 248.82257197 50.27148909 251.03125 50.3203125 C256.59860519 50.69977618 260.209139 51.16389707 264.140625 55.234375 C266.38439983 58.60003724 267.49317702 62.21964257 268.40625 66.1328125 C268.78136719 65.65070313 269.15648437 65.16859375 269.54296875 64.671875 C273.58965229 59.67722781 276.17884689 57.49817889 282.71875 56.7578125 C288.73169896 57.36929884 293.36302484 59.5951085 297.34375 64.1953125 C301.279676 69.80102528 300.98462177 75.498062 300.40625 82.1328125 C298.64674917 89.03302357 294.67834056 93.52713788 289.40625 98.1328125 C292.76015424 101.64687509 294.8300156 101.9812515 299.65625 102.4453125 C304.34051705 102.05495691 307.66073735 101.00085147 311.40625 98.1328125 C315.65027501 93.08040177 315.74712661 87.90884013 315.25390625 81.55078125 C315.40625 79.1328125 315.40625 79.1328125 316.71484375 77.3359375 C319.34964198 75.46176232 321.27327138 75.67591979 324.40625 76.1328125 C326.94660091 78.54166289 327.39184623 80.02017761 327.83984375 83.5234375 C327.84729015 90.88048489 327.83028833 96.95149066 323.40625 103.1328125 C322.849375 104.0196875 322.2925 104.9065625 321.71875 105.8203125 C315.88493262 111.65412988 308.91549493 114.2764825 300.78125 114.3828125 C291.73227264 114.27132613 286.40882743 113.01003846 279.53125 107.0703125 C275.04510749 103.23107456 271.47559745 102.03974211 265.65625 101.38671875 C263.40625 101.1328125 263.40625 101.1328125 261.40625 100.1328125 C261.27089844 101.21433594 261.13554687 102.29585938 260.99609375 103.41015625 C257.83576404 126.71823227 251.61804601 147.72146493 238.28125 167.1953125 C236.21389306 170.37069601 234.91544469 172.48830877 235.21875 176.3203125 C236.34145148 179.92477514 237.77309803 182.89286922 239.5390625 186.19921875 C241.54653482 190.67533945 240.67444677 194.76431676 239.09375 199.1953125 C238.12128764 201.62646839 237.09857993 203.63420077 235.71875 205.8828125 C232.27870798 214.40101178 234.6006553 222.70805595 237.44921875 231.0625 C238.71297458 235.11683503 239.11973282 238.90668414 239.40625 243.1328125 C238.519375 243.5659375 237.6325 243.9990625 236.71875 244.4453125 C233.47458951 246.04025139 233.47458951 246.04025139 230.78125 247.7578125 C226.43518725 250.27395409 222.63787988 250.2451288 217.65625 250.1953125 C216.48578125 250.18628906 215.3153125 250.17726563 214.109375 250.16796875 C213.21734375 250.15636719 212.3253125 250.14476562 211.40625 250.1328125 C210.65625 248.5703125 210.65625 248.5703125 210.40625 246.1328125 C211.42130453 244.48593831 212.43663553 242.83923308 213.45410156 241.19384766 C215.27798998 237.24583072 214.89770135 233.08917388 214.78125 228.8203125 C214.77996094 227.93408203 214.77867187 227.04785156 214.77734375 226.13476562 C214.66142389 217.30553599 214.01595108 209.24965095 208.46875 202.0703125 C207.77910156 201.15121094 207.08945312 200.23210937 206.37890625 199.28515625 C204.51177016 196.89814434 204.51177016 196.89814434 201.40625 196.1328125 C201.22449219 196.81988281 201.04273438 197.50695312 200.85546875 198.21484375 C200.60410156 199.11589844 200.35273438 200.01695312 200.09375 200.9453125 C199.85011719 201.83863281 199.60648437 202.73195313 199.35546875 203.65234375 C198.36024045 206.2530432 197.59806053 207.45084759 195.40625 209.1328125 C193.55 209.720625 193.55 209.720625 191.65625 210.3203125 C183.43359888 213.29670175 179.44923148 221.08174815 175.69482422 228.54467773 C172.77279896 234.85994079 171.92208735 241.20585384 171.40625 248.1328125 C170.230625 248.5659375 169.055 248.9990625 167.84375 249.4453125 C165.09931798 250.45819602 162.55158646 251.54488242 159.90625 252.8203125 C152.84034408 255.47002722 146.48190757 253.96724224 139.40625 252.1328125 C139.72078125 251.53855469 140.0353125 250.94429687 140.359375 250.33203125 C142.58860963 246.01456779 144.56358669 241.83080353 146.03125 237.1953125 C148.88231699 228.90455284 153.82578882 221.50766654 158.34643555 214.04296875 C163.54605419 204.67143771 159.99643509 190.27024244 158.40625 180.1328125 C151.33105823 177.62655635 144.96273194 176.58735999 137.46875 176.6328125 C136.43951416 176.63345703 135.41027832 176.63410156 134.34985352 176.63476562 C126.3035074 176.78474637 118.71143873 178.0111719 110.84375 179.6328125 C90.60396143 183.73651539 71.67072193 182.14992108 51.35571289 179.55688477 C30.83192762 176.59016748 30.83192762 176.59016748 12.34375 184.0703125 C11.67472656 184.59625 11.00570312 185.1221875 10.31640625 185.6640625 C8.40625 187.1328125 8.40625 187.1328125 5.28125 189.0703125 C2.25401425 191.2420251 0.31249553 193.52567517 -2.0078125 196.3984375 C-3.67218515 198.21858887 -5.35351756 199.46299554 -7.40625 200.8203125 C-10.69492599 203.20621469 -10.99660951 203.44915365 -11.59375 207.1328125 C-10.81 207.7309375 -10.02625 208.3290625 -9.21875 208.9453125 C-6.59375 211.1328125 -6.59375 211.1328125 -4.59375 214.1328125 C-3.418125 214.5659375 -2.2425 214.9990625 -1.03125 215.4453125 C0.103125 216.0021875 1.2375 216.5590625 2.40625 217.1328125 C3.34375 220.3203125 3.34375 220.3203125 3.40625 223.1328125 C2.41625 223.1328125 1.42625 223.1328125 0.40625 223.1328125 C1.06625 224.1021875 1.72625 225.0715625 2.40625 226.0703125 C4.83521857 230.29947409 5.20437882 234.34403959 4.40625 239.1328125 C3.74625 240.1228125 3.08625 241.1128125 2.40625 242.1328125 C-1.69007076 240.93388935 -5.14317192 239.32899294 -8.80078125 237.1328125 C-10.84330314 235.94236121 -10.84330314 235.94236121 -14.21875 234.6953125 C-17.96437336 232.96122761 -19.86670695 231.20947646 -22.59375 228.1328125 C-23.08875 227.6171875 -23.58375 227.1015625 -24.09375 226.5703125 C-27.69252863 222.68363158 -29.82609655 218.89121398 -31.734375 213.953125 C-32.4527766 211.94584161 -32.4527766 211.94584161 -34.59375 211.1328125 C-34.655625 211.9165625 -34.7175 212.7003125 -34.78125 213.5078125 C-35.5080165 216.75030919 -36.24153811 218.39771995 -37.84375 221.1953125 C-41.14151292 227.40848902 -42.42146081 234.08504562 -43.89355469 240.90844727 C-44.08723633 241.79588623 -44.28091797 242.6833252 -44.48046875 243.59765625 C-44.64764404 244.3980835 -44.81481934 245.19851074 -44.98706055 246.02319336 C-45.59375 248.1328125 -45.59375 248.1328125 -47.59375 251.1328125 C-55.84420046 254.49667066 -64.81074892 254.76189798 -73.59375 254.1328125 C-74.25375 253.8028125 -74.91375 253.4728125 -75.59375 253.1328125 C-74.19548735 249.31181753 -72.41825795 246.0521349 -70.21875 242.6328125 C-69.34089844 241.25609375 -69.34089844 241.25609375 -68.4453125 239.8515625 C-66.59375 237.1328125 -66.59375 237.1328125 -64.5078125 234.59765625 C-58.61827129 227.01336951 -58.23411494 218.13173749 -58.21875 208.8828125 C-58.21713867 207.94832275 -58.21552734 207.01383301 -58.21386719 206.05102539 C-58.08807334 196.99949145 -58.08807334 196.99949145 -61.59375 189.1328125 C-62.92100037 188.83358864 -64.25607286 188.56880461 -65.59375 188.3203125 C-69.11109736 187.60237293 -71.91837102 186.54317792 -75.09375 184.8828125 C-80.16593354 182.52630581 -83.43008195 183.46148033 -88.59375 185.1328125 C-103.55423109 189.64470362 -117.61814027 188.81876648 -132.52148438 184.58520508 C-134.7363297 184.10168618 -136.63155894 184.06525083 -138.89453125 184.140625 C-139.70728516 184.15738281 -140.52003906 184.17414063 -141.35742188 184.19140625 C-143.04515273 184.23537778 -144.73269568 184.28735135 -146.41992188 184.34765625 C-151.94977287 184.44367576 -155.7107388 183.79801625 -160.59375 181.1328125 C-162.03125 178.9453125 -162.03125 178.9453125 -162.59375 177.1328125 C-161.93375 176.1428125 -161.27375 175.1528125 -160.59375 174.1328125 C-163.31153419 172.37424626 -165.5837068 171.1356246 -168.71875 170.2578125 C-172.35184602 168.83616623 -172.90733555 167.59286973 -174.59375 164.1328125 C-175.0703125 161.3359375 -175.0703125 161.3359375 -175.21875 158.3828125 C-175.28191406 157.34125 -175.34507812 156.2996875 -175.41015625 155.2265625 C-175.47074219 154.205625 -175.53132812 153.1846875 -175.59375 152.1328125 C-175.89338849 149.12798709 -176.24380736 146.13232086 -176.59375 143.1328125 C-175.99046875 143.08382812 -175.3871875 143.03484375 -174.765625 142.984375 C-173.56679687 142.87222656 -173.56679687 142.87222656 -172.34375 142.7578125 C-171.16039062 142.65339844 -171.16039062 142.65339844 -169.953125 142.546875 C-166.49358417 141.93973704 -164.26595424 141.03882691 -162.15625 138.1953125 C-160.28889192 135.73039983 -158.24740841 134.66914105 -155.59375 133.1328125 C-151.92617948 125.79767147 -154.89152895 111.78794385 -156.84765625 104.00390625 C-157.52264183 101.8922048 -157.52264183 101.8922048 -159.84375 100.1953125 C-162.41722861 99.18965071 -162.41722861 99.18965071 -165.0234375 98.828125 C-170.73195373 97.28387593 -174.62332782 90.87271518 -178.34375 86.4453125 C-179.08431641 85.57422852 -179.08431641 85.57422852 -179.83984375 84.68554688 C-184.02915937 79.7214948 -184.71435498 77.64548116 -184.59375 71.1328125 C-183.60375 71.1328125 -182.61375 71.1328125 -181.59375 71.1328125 C-181.635 70.2046875 -181.67625 69.2765625 -181.71875 68.3203125 C-181.59375 65.1328125 -181.59375 65.1328125 -179.59375 62.1328125 C-174.91133342 62.46727083 -172.85500532 63.67699749 -169.4296875 66.78515625 C-165.15954913 69.91961952 -159.40582913 72.25507681 -154.078125 72.0234375 C-150.75159585 70.83090818 -148.92736182 68.97306513 -146.40625 66.5078125 C-141.44473476 61.81032283 -136.32563276 57.84631563 -130.59375 54.1328125 C-130.02027832 53.75656738 -129.44680664 53.38032227 -128.85595703 52.99267578 C-115.78160293 44.44705829 -102.07965762 37.7252353 -87.94946289 31.13232422 C-83.12408127 28.8753709 -78.34960834 26.53241779 -73.59375 24.1328125 C-70.9287732 22.79608154 -68.26172375 21.4635505 -65.59375 20.1328125 C-64.9347168 19.8028125 -64.27568359 19.4728125 -63.59667969 19.1328125 C-43.94452607 9.35923052 -22.25490634 0.01911934 0 0 Z M266.40625 68.1328125 C265.808125 69.0815625 265.21 70.0303125 264.59375 71.0078125 C262.5519611 73.92465379 261.65493341 74.97256842 258.40625 76.1328125 C258.44008629 81.33359592 258.44008629 81.33359592 260.73828125 85.77734375 C263.69343667 88.36468808 263.69343667 88.36468808 267.40625 89.1328125 C267.40625 82.2028125 267.40625 75.2728125 267.40625 68.1328125 C267.07625 68.1328125 266.74625 68.1328125 266.40625 68.1328125 Z M280.40625 69.1328125 C277.25339988 73.92514468 277.24769101 77.29554751 277.88671875 82.765625 C278.41169885 85.1576396 279.21410029 87.00362331 280.40625 89.1328125 C285.56998133 86.26407287 287.67726551 84.03170076 289.40625 78.1328125 C289.2809629 74.87534783 288.96118501 72.96521502 287.15625 70.2578125 C284.82411614 68.75858359 283.12253175 68.91257344 280.40625 69.1328125 Z " fill="#D49191" transform="translate(184.59375,128.8671875)"/>
</svg>
